<mxfile host="app.diagrams.net" modified="2020-04-29T03:59:51.943Z" agent="5.0 (Macintosh; Intel Mac OS X 10_14_6) AppleWebKit/537.36 (KHTML, like Gecko) Chrome/80.0.3987.163 Safari/537.36" etag="Go4CwKxDByVyanK3tHAf" version="13.0.1" type="github">
  <diagram id="qINoJ6QLdbQ89NbVhY2Q" name="概览-产品">
    <mxGraphModel dx="1426" dy="805" grid="1" gridSize="10" guides="1" tooltips="1" connect="1" arrows="1" fold="1" page="1" pageScale="1" pageWidth="827" pageHeight="1169" math="0" shadow="0">
      <root>
        <mxCell id="K1xtMbe7Ad5UqCrFpwCg-0" />
        <mxCell id="K1xtMbe7Ad5UqCrFpwCg-1" parent="K1xtMbe7Ad5UqCrFpwCg-0" />
        <mxCell id="K1xtMbe7Ad5UqCrFpwCg-56" value="" style="rounded=0;whiteSpace=wrap;html=1;gradientColor=#ffffff;" parent="K1xtMbe7Ad5UqCrFpwCg-1" vertex="1">
          <mxGeometry x="80" y="20" width="1500" height="820" as="geometry" />
        </mxCell>
        <mxCell id="K1xtMbe7Ad5UqCrFpwCg-27" value="" style="rounded=0;whiteSpace=wrap;html=1;gradientColor=#ffffff;" parent="K1xtMbe7Ad5UqCrFpwCg-1" vertex="1">
          <mxGeometry x="80" y="860" width="1760" height="250" as="geometry" />
        </mxCell>
        <mxCell id="K1xtMbe7Ad5UqCrFpwCg-18" value="" style="rounded=0;whiteSpace=wrap;html=1;gradientColor=#ffffff;" parent="K1xtMbe7Ad5UqCrFpwCg-1" vertex="1">
          <mxGeometry x="160" y="890" width="630" height="200" as="geometry" />
        </mxCell>
        <mxCell id="K1xtMbe7Ad5UqCrFpwCg-2" value="" style="rounded=0;whiteSpace=wrap;html=1;fontFamily=Helvetica;fontSize=12;fontColor=#000000;align=center;strokeColor=#000000;fillColor=#ffffff;gradientColor=#ffffff;" parent="K1xtMbe7Ad5UqCrFpwCg-1" vertex="1">
          <mxGeometry x="170" y="940" width="200" height="140" as="geometry" />
        </mxCell>
        <mxCell id="K1xtMbe7Ad5UqCrFpwCg-7" value="" style="rounded=0;whiteSpace=wrap;html=1;fontFamily=Helvetica;fontSize=12;fontColor=#000000;align=center;strokeColor=#000000;fillColor=#ffffff;gradientColor=#ffffff;" parent="K1xtMbe7Ad5UqCrFpwCg-1" vertex="1">
          <mxGeometry x="384" y="940" width="196" height="140" as="geometry" />
        </mxCell>
        <mxCell id="K1xtMbe7Ad5UqCrFpwCg-8" value="CRS" style="rounded=0;whiteSpace=wrap;html=1;gradientColor=#ffffff;" parent="K1xtMbe7Ad5UqCrFpwCg-1" vertex="1">
          <mxGeometry x="470" y="990" width="100" height="30" as="geometry" />
        </mxCell>
        <mxCell id="K1xtMbe7Ad5UqCrFpwCg-9" value="PMS" style="rounded=0;whiteSpace=wrap;html=1;gradientColor=#ffffff;" parent="K1xtMbe7Ad5UqCrFpwCg-1" vertex="1">
          <mxGeometry x="390" y="1030" width="180" height="40" as="geometry" />
        </mxCell>
        <mxCell id="K1xtMbe7Ad5UqCrFpwCg-11" value="&lt;font style=&quot;font-size: 14px&quot;&gt;&lt;b&gt;小B供应（旅馆、客栈）&lt;/b&gt;&lt;/font&gt;" style="text;html=1;strokeColor=none;fillColor=none;align=center;verticalAlign=middle;whiteSpace=wrap;rounded=0;" parent="K1xtMbe7Ad5UqCrFpwCg-1" vertex="1">
          <mxGeometry x="410" y="950" width="157" height="20" as="geometry" />
        </mxCell>
        <mxCell id="K1xtMbe7Ad5UqCrFpwCg-13" value="" style="rounded=0;whiteSpace=wrap;html=1;fontFamily=Helvetica;fontSize=12;fontColor=#000000;align=center;strokeColor=#000000;fillColor=#ffffff;gradientColor=#ffffff;" parent="K1xtMbe7Ad5UqCrFpwCg-1" vertex="1">
          <mxGeometry x="595" y="940" width="185" height="140" as="geometry" />
        </mxCell>
        <mxCell id="K1xtMbe7Ad5UqCrFpwCg-16" value="&lt;font style=&quot;font-size: 14px&quot;&gt;&lt;b&gt;C端供应（民宿）&lt;/b&gt;&lt;/font&gt;" style="text;html=1;strokeColor=none;fillColor=none;align=center;verticalAlign=middle;whiteSpace=wrap;rounded=0;" parent="K1xtMbe7Ad5UqCrFpwCg-1" vertex="1">
          <mxGeometry x="625" y="950" width="140" height="20" as="geometry" />
        </mxCell>
        <mxCell id="K1xtMbe7Ad5UqCrFpwCg-17" value="账本+人工" style="rounded=0;whiteSpace=wrap;html=1;gradientColor=#ffffff;" parent="K1xtMbe7Ad5UqCrFpwCg-1" vertex="1">
          <mxGeometry x="632.5" y="1000" width="110" height="40" as="geometry" />
        </mxCell>
        <mxCell id="K1xtMbe7Ad5UqCrFpwCg-20" value="&lt;font style=&quot;font-size: 18px&quot;&gt;&lt;b&gt;住宿仓-PMS&lt;/b&gt;&lt;/font&gt;" style="text;html=1;strokeColor=none;fillColor=none;align=center;verticalAlign=middle;whiteSpace=wrap;rounded=0;" parent="K1xtMbe7Ad5UqCrFpwCg-1" vertex="1">
          <mxGeometry x="377" y="900" width="180" height="20" as="geometry" />
        </mxCell>
        <mxCell id="K1xtMbe7Ad5UqCrFpwCg-3" value="CRS" style="rounded=0;whiteSpace=wrap;html=1;gradientColor=#ffffff;" parent="K1xtMbe7Ad5UqCrFpwCg-1" vertex="1">
          <mxGeometry x="230" y="990" width="130" height="30" as="geometry" />
        </mxCell>
        <mxCell id="K1xtMbe7Ad5UqCrFpwCg-4" value="PMS" style="rounded=0;whiteSpace=wrap;html=1;gradientColor=#ffffff;" parent="K1xtMbe7Ad5UqCrFpwCg-1" vertex="1">
          <mxGeometry x="180" y="1035" width="80" height="35" as="geometry" />
        </mxCell>
        <mxCell id="K1xtMbe7Ad5UqCrFpwCg-5" value="CMS" style="rounded=0;whiteSpace=wrap;html=1;gradientColor=#ffffff;" parent="K1xtMbe7Ad5UqCrFpwCg-1" vertex="1">
          <mxGeometry x="270" y="1035" width="90" height="35" as="geometry" />
        </mxCell>
        <mxCell id="K1xtMbe7Ad5UqCrFpwCg-6" value="&lt;b&gt;&lt;font style=&quot;font-size: 14px&quot;&gt;大B供应（集团、酒店）&lt;/font&gt;&lt;/b&gt;" style="text;html=1;strokeColor=none;fillColor=none;align=center;verticalAlign=middle;whiteSpace=wrap;rounded=0;" parent="K1xtMbe7Ad5UqCrFpwCg-1" vertex="1">
          <mxGeometry x="193" y="950" width="160" height="20" as="geometry" />
        </mxCell>
        <mxCell id="K1xtMbe7Ad5UqCrFpwCg-19" value="" style="rounded=0;whiteSpace=wrap;html=1;gradientColor=#ffffff;" parent="K1xtMbe7Ad5UqCrFpwCg-1" vertex="1">
          <mxGeometry x="180" y="990" width="40" height="30" as="geometry" />
        </mxCell>
        <mxCell id="K1xtMbe7Ad5UqCrFpwCg-21" value="" style="rounded=0;whiteSpace=wrap;html=1;gradientColor=#ffffff;" parent="K1xtMbe7Ad5UqCrFpwCg-1" vertex="1">
          <mxGeometry x="390" y="990" width="60" height="30" as="geometry" />
        </mxCell>
        <mxCell id="K1xtMbe7Ad5UqCrFpwCg-22" value="" style="rounded=0;whiteSpace=wrap;html=1;gradientColor=#ffffff;" parent="K1xtMbe7Ad5UqCrFpwCg-1" vertex="1">
          <mxGeometry x="810" y="890" width="490" height="200" as="geometry" />
        </mxCell>
        <mxCell id="K1xtMbe7Ad5UqCrFpwCg-23" value="&lt;font style=&quot;font-size: 18px&quot;&gt;&lt;b&gt;实物仓-WMS&lt;/b&gt;&lt;/font&gt;" style="text;html=1;strokeColor=none;fillColor=none;align=center;verticalAlign=middle;whiteSpace=wrap;rounded=0;" parent="K1xtMbe7Ad5UqCrFpwCg-1" vertex="1">
          <mxGeometry x="965" y="900" width="180" height="20" as="geometry" />
        </mxCell>
        <mxCell id="K1xtMbe7Ad5UqCrFpwCg-24" value="" style="rounded=0;whiteSpace=wrap;html=1;gradientColor=#ffffff;" parent="K1xtMbe7Ad5UqCrFpwCg-1" vertex="1">
          <mxGeometry x="1312" y="890" width="498" height="200" as="geometry" />
        </mxCell>
        <mxCell id="K1xtMbe7Ad5UqCrFpwCg-25" value="&lt;font style=&quot;font-size: 18px&quot;&gt;&lt;b&gt;分时仓-TMS&lt;/b&gt;&lt;/font&gt;" style="text;html=1;strokeColor=none;fillColor=none;align=center;verticalAlign=middle;whiteSpace=wrap;rounded=0;" parent="K1xtMbe7Ad5UqCrFpwCg-1" vertex="1">
          <mxGeometry x="1500" y="900" width="180" height="20" as="geometry" />
        </mxCell>
        <mxCell id="K1xtMbe7Ad5UqCrFpwCg-28" value="&lt;font style=&quot;font-size: 24px&quot;&gt;&lt;b&gt;下游履约&lt;/b&gt;&lt;/font&gt;" style="text;html=1;strokeColor=none;fillColor=none;align=center;verticalAlign=middle;whiteSpace=wrap;rounded=0;" parent="K1xtMbe7Ad5UqCrFpwCg-1" vertex="1">
          <mxGeometry x="95" y="972" width="40" height="20" as="geometry" />
        </mxCell>
        <mxCell id="K1xtMbe7Ad5UqCrFpwCg-30" value="" style="rounded=0;whiteSpace=wrap;html=1;gradientColor=#ffffff;" parent="K1xtMbe7Ad5UqCrFpwCg-1" vertex="1">
          <mxGeometry x="160" y="510" width="1400" height="310" as="geometry" />
        </mxCell>
        <mxCell id="K1xtMbe7Ad5UqCrFpwCg-39" value="&lt;span style=&quot;font-size: 24px&quot;&gt;&lt;b&gt;中台服务&lt;/b&gt;&lt;/span&gt;" style="text;html=1;strokeColor=none;fillColor=none;align=center;verticalAlign=middle;whiteSpace=wrap;rounded=0;" parent="K1xtMbe7Ad5UqCrFpwCg-1" vertex="1">
          <mxGeometry x="165" y="651" width="40" height="20" as="geometry" />
        </mxCell>
        <mxCell id="K1xtMbe7Ad5UqCrFpwCg-40" value="" style="rounded=0;whiteSpace=wrap;html=1;gradientColor=#ffffff;" parent="K1xtMbe7Ad5UqCrFpwCg-1" vertex="1">
          <mxGeometry x="160" y="230" width="1400" height="240" as="geometry" />
        </mxCell>
        <mxCell id="K1xtMbe7Ad5UqCrFpwCg-41" value="&lt;span style=&quot;font-size: 24px&quot;&gt;&lt;b&gt;业务系统&lt;/b&gt;&lt;/span&gt;" style="text;html=1;strokeColor=none;fillColor=none;align=center;verticalAlign=middle;whiteSpace=wrap;rounded=0;" parent="K1xtMbe7Ad5UqCrFpwCg-1" vertex="1">
          <mxGeometry x="170" y="330" width="40" height="20" as="geometry" />
        </mxCell>
        <mxCell id="K1xtMbe7Ad5UqCrFpwCg-44" value="" style="rounded=0;whiteSpace=wrap;html=1;gradientColor=#ffffff;" parent="K1xtMbe7Ad5UqCrFpwCg-1" vertex="1">
          <mxGeometry x="160" y="60" width="1400" height="150" as="geometry" />
        </mxCell>
        <mxCell id="K1xtMbe7Ad5UqCrFpwCg-45" value="&lt;span style=&quot;font-size: 24px&quot;&gt;&lt;b&gt;业务前端&lt;/b&gt;&lt;/span&gt;" style="text;html=1;strokeColor=none;fillColor=none;align=center;verticalAlign=middle;whiteSpace=wrap;rounded=0;" parent="K1xtMbe7Ad5UqCrFpwCg-1" vertex="1">
          <mxGeometry x="170" y="129" width="40" height="20" as="geometry" />
        </mxCell>
        <mxCell id="K1xtMbe7Ad5UqCrFpwCg-46" value="" style="rounded=0;whiteSpace=wrap;html=1;gradientColor=#ffffff;" parent="K1xtMbe7Ad5UqCrFpwCg-1" vertex="1">
          <mxGeometry x="240" y="250" width="310" height="200" as="geometry" />
        </mxCell>
        <mxCell id="K1xtMbe7Ad5UqCrFpwCg-47" value="&lt;b&gt;&lt;font style=&quot;font-size: 18px&quot;&gt;主站ToC&lt;/font&gt;&lt;/b&gt;" style="text;html=1;strokeColor=none;fillColor=none;align=center;verticalAlign=middle;whiteSpace=wrap;rounded=0;" parent="K1xtMbe7Ad5UqCrFpwCg-1" vertex="1">
          <mxGeometry x="339" y="270" width="105" height="20" as="geometry" />
        </mxCell>
        <mxCell id="K1xtMbe7Ad5UqCrFpwCg-50" value="" style="rounded=0;whiteSpace=wrap;html=1;gradientColor=#ffffff;" parent="K1xtMbe7Ad5UqCrFpwCg-1" vertex="1">
          <mxGeometry x="570" y="250" width="310" height="200" as="geometry" />
        </mxCell>
        <mxCell id="K1xtMbe7Ad5UqCrFpwCg-51" value="&lt;span style=&quot;font-size: 18px&quot;&gt;&lt;b&gt;商旅ToB&lt;/b&gt;&lt;/span&gt;" style="text;html=1;strokeColor=none;fillColor=none;align=center;verticalAlign=middle;whiteSpace=wrap;rounded=0;" parent="K1xtMbe7Ad5UqCrFpwCg-1" vertex="1">
          <mxGeometry x="669" y="270" width="105" height="20" as="geometry" />
        </mxCell>
        <mxCell id="K1xtMbe7Ad5UqCrFpwCg-52" value="" style="rounded=0;whiteSpace=wrap;html=1;gradientColor=#ffffff;" parent="K1xtMbe7Ad5UqCrFpwCg-1" vertex="1">
          <mxGeometry x="900" y="250" width="310" height="200" as="geometry" />
        </mxCell>
        <mxCell id="K1xtMbe7Ad5UqCrFpwCg-53" value="&lt;span style=&quot;font-size: 18px&quot;&gt;&lt;b&gt;商城&lt;/b&gt;&lt;/span&gt;" style="text;html=1;strokeColor=none;fillColor=none;align=center;verticalAlign=middle;whiteSpace=wrap;rounded=0;" parent="K1xtMbe7Ad5UqCrFpwCg-1" vertex="1">
          <mxGeometry x="999" y="270" width="105" height="20" as="geometry" />
        </mxCell>
        <mxCell id="K1xtMbe7Ad5UqCrFpwCg-54" value="" style="rounded=0;whiteSpace=wrap;html=1;gradientColor=#ffffff;" parent="K1xtMbe7Ad5UqCrFpwCg-1" vertex="1">
          <mxGeometry x="1230" y="250" width="310" height="200" as="geometry" />
        </mxCell>
        <mxCell id="K1xtMbe7Ad5UqCrFpwCg-55" value="&lt;span style=&quot;font-size: 18px&quot;&gt;&lt;b&gt;开放平台&lt;/b&gt;&lt;/span&gt;" style="text;html=1;strokeColor=none;fillColor=none;align=center;verticalAlign=middle;whiteSpace=wrap;rounded=0;" parent="K1xtMbe7Ad5UqCrFpwCg-1" vertex="1">
          <mxGeometry x="1329" y="270" width="105" height="20" as="geometry" />
        </mxCell>
        <mxCell id="K1xtMbe7Ad5UqCrFpwCg-58" value="&lt;span style=&quot;font-size: 24px&quot;&gt;&lt;b&gt;线上平台&lt;/b&gt;&lt;/span&gt;" style="text;html=1;strokeColor=none;fillColor=none;align=center;verticalAlign=middle;whiteSpace=wrap;rounded=0;" parent="K1xtMbe7Ad5UqCrFpwCg-1" vertex="1">
          <mxGeometry x="95" y="440" width="40" height="20" as="geometry" />
        </mxCell>
        <mxCell id="K1xtMbe7Ad5UqCrFpwCg-59" value="" style="rounded=0;whiteSpace=wrap;html=1;gradientColor=#ffffff;" parent="K1xtMbe7Ad5UqCrFpwCg-1" vertex="1">
          <mxGeometry x="1600" y="20" width="110" height="820" as="geometry" />
        </mxCell>
        <mxCell id="K1xtMbe7Ad5UqCrFpwCg-60" value="" style="rounded=0;whiteSpace=wrap;html=1;gradientColor=#ffffff;" parent="K1xtMbe7Ad5UqCrFpwCg-1" vertex="1">
          <mxGeometry x="1730" y="20" width="100" height="820" as="geometry" />
        </mxCell>
        <mxCell id="K1xtMbe7Ad5UqCrFpwCg-63" value="&lt;span style=&quot;font-size: 18px&quot;&gt;&lt;b&gt;竞品平台&lt;/b&gt;&lt;/span&gt;" style="text;html=1;strokeColor=none;fillColor=none;align=center;verticalAlign=middle;whiteSpace=wrap;rounded=0;" parent="K1xtMbe7Ad5UqCrFpwCg-1" vertex="1">
          <mxGeometry x="1640" y="440" width="30" height="20" as="geometry" />
        </mxCell>
        <mxCell id="K1xtMbe7Ad5UqCrFpwCg-64" value="&lt;span style=&quot;font-size: 18px&quot;&gt;&lt;b&gt;线下渠道&lt;/b&gt;&lt;/span&gt;" style="text;html=1;strokeColor=none;fillColor=none;align=center;verticalAlign=middle;whiteSpace=wrap;rounded=0;" parent="K1xtMbe7Ad5UqCrFpwCg-1" vertex="1">
          <mxGeometry x="1765" y="440" width="30" height="20" as="geometry" />
        </mxCell>
        <mxCell id="K1xtMbe7Ad5UqCrFpwCg-84" value="&lt;font style=&quot;font-size: 18px&quot;&gt;&lt;b&gt;商品中心&lt;/b&gt;&lt;/font&gt;" style="text;html=1;strokeColor=none;fillColor=none;align=center;verticalAlign=middle;whiteSpace=wrap;rounded=0;" parent="K1xtMbe7Ad5UqCrFpwCg-1" vertex="1">
          <mxGeometry x="1342.5" y="550" width="75" height="20" as="geometry" />
        </mxCell>
        <mxCell id="K1xtMbe7Ad5UqCrFpwCg-87" value="" style="group" parent="K1xtMbe7Ad5UqCrFpwCg-1" vertex="1" connectable="0">
          <mxGeometry x="440" y="540" width="200" height="260" as="geometry" />
        </mxCell>
        <mxCell id="K1xtMbe7Ad5UqCrFpwCg-31" value="" style="rounded=0;whiteSpace=wrap;html=1;gradientColor=#ffffff;" parent="K1xtMbe7Ad5UqCrFpwCg-87" vertex="1">
          <mxGeometry width="200" height="260" as="geometry" />
        </mxCell>
        <mxCell id="K1xtMbe7Ad5UqCrFpwCg-32" value="&lt;font style=&quot;font-size: 18px&quot;&gt;&lt;b&gt;商品中心&lt;/b&gt;&lt;/font&gt;" style="text;html=1;strokeColor=none;fillColor=none;align=center;verticalAlign=middle;whiteSpace=wrap;rounded=0;" parent="K1xtMbe7Ad5UqCrFpwCg-87" vertex="1">
          <mxGeometry x="60" y="10" width="76.96" height="20" as="geometry" />
        </mxCell>
        <mxCell id="K1xtMbe7Ad5UqCrFpwCg-102" value="&lt;b&gt;&lt;font style=&quot;font-size: 14px&quot;&gt;商品信息&lt;/font&gt;&lt;/b&gt;" style="rounded=1;whiteSpace=wrap;html=1;gradientColor=#ffffff;" parent="K1xtMbe7Ad5UqCrFpwCg-87" vertex="1">
          <mxGeometry x="17.391304347826086" y="71" width="78.26086956521739" height="39" as="geometry" />
        </mxCell>
        <mxCell id="K1xtMbe7Ad5UqCrFpwCg-103" value="&lt;span style=&quot;font-size: 14px&quot;&gt;&lt;b&gt;商家信息&lt;/b&gt;&lt;/span&gt;" style="rounded=1;whiteSpace=wrap;html=1;gradientColor=#ffffff;" parent="K1xtMbe7Ad5UqCrFpwCg-87" vertex="1">
          <mxGeometry x="110.00130434782608" y="71" width="78.26086956521739" height="39" as="geometry" />
        </mxCell>
        <mxCell id="K1xtMbe7Ad5UqCrFpwCg-106" value="&lt;span style=&quot;font-size: 14px&quot;&gt;&lt;b&gt;类目管理&lt;/b&gt;&lt;/span&gt;" style="rounded=1;whiteSpace=wrap;html=1;gradientColor=#ffffff;" parent="K1xtMbe7Ad5UqCrFpwCg-87" vertex="1">
          <mxGeometry x="17.391304347826086" y="130.5" width="78.26086956521739" height="39" as="geometry" />
        </mxCell>
        <mxCell id="K1xtMbe7Ad5UqCrFpwCg-107" value="&lt;span style=&quot;font-size: 14px&quot;&gt;&lt;b&gt;品类管理&lt;/b&gt;&lt;/span&gt;" style="rounded=1;whiteSpace=wrap;html=1;gradientColor=#ffffff;" parent="K1xtMbe7Ad5UqCrFpwCg-87" vertex="1">
          <mxGeometry x="110.00130434782608" y="130.5" width="78.26086956521739" height="39" as="geometry" />
        </mxCell>
        <mxCell id="K1xtMbe7Ad5UqCrFpwCg-108" value="&lt;span style=&quot;font-size: 14px&quot;&gt;&lt;b&gt;库存管理&lt;/b&gt;&lt;/span&gt;" style="rounded=1;whiteSpace=wrap;html=1;gradientColor=#ffffff;" parent="K1xtMbe7Ad5UqCrFpwCg-87" vertex="1">
          <mxGeometry x="17.391304347826086" y="190" width="78.26086956521739" height="39" as="geometry" />
        </mxCell>
        <mxCell id="K1xtMbe7Ad5UqCrFpwCg-109" value="&lt;span style=&quot;font-size: 14px&quot;&gt;&lt;b&gt;品牌管理&lt;/b&gt;&lt;/span&gt;" style="rounded=1;whiteSpace=wrap;html=1;gradientColor=#ffffff;" parent="K1xtMbe7Ad5UqCrFpwCg-87" vertex="1">
          <mxGeometry x="110.00130434782608" y="190" width="78.26086956521739" height="39" as="geometry" />
        </mxCell>
        <mxCell id="K1xtMbe7Ad5UqCrFpwCg-89" value="" style="group" parent="K1xtMbe7Ad5UqCrFpwCg-1" vertex="1" connectable="0">
          <mxGeometry x="662.5" y="540" width="200" height="260" as="geometry" />
        </mxCell>
        <mxCell id="K1xtMbe7Ad5UqCrFpwCg-88" value="" style="group" parent="K1xtMbe7Ad5UqCrFpwCg-89" vertex="1" connectable="0">
          <mxGeometry width="200" height="260" as="geometry" />
        </mxCell>
        <mxCell id="K1xtMbe7Ad5UqCrFpwCg-79" value="" style="rounded=0;whiteSpace=wrap;html=1;gradientColor=#ffffff;" parent="K1xtMbe7Ad5UqCrFpwCg-88" vertex="1">
          <mxGeometry width="200" height="260" as="geometry" />
        </mxCell>
        <mxCell id="K1xtMbe7Ad5UqCrFpwCg-78" value="&lt;font style=&quot;font-size: 18px&quot;&gt;&lt;b&gt;促销中心&lt;/b&gt;&lt;/font&gt;" style="text;html=1;strokeColor=none;fillColor=none;align=center;verticalAlign=middle;whiteSpace=wrap;rounded=0;" parent="K1xtMbe7Ad5UqCrFpwCg-88" vertex="1">
          <mxGeometry x="56.519999999999996" y="10" width="86.96" height="20" as="geometry" />
        </mxCell>
        <mxCell id="K1xtMbe7Ad5UqCrFpwCg-90" value="" style="group" parent="K1xtMbe7Ad5UqCrFpwCg-1" vertex="1" connectable="0">
          <mxGeometry x="890" y="540" width="200" height="260" as="geometry" />
        </mxCell>
        <mxCell id="K1xtMbe7Ad5UqCrFpwCg-80" value="" style="rounded=0;whiteSpace=wrap;html=1;gradientColor=#ffffff;" parent="K1xtMbe7Ad5UqCrFpwCg-90" vertex="1">
          <mxGeometry width="200" height="260" as="geometry" />
        </mxCell>
        <mxCell id="K1xtMbe7Ad5UqCrFpwCg-83" value="&lt;font style=&quot;font-size: 18px&quot;&gt;&lt;b&gt;订单中心&lt;/b&gt;&lt;/font&gt;" style="text;html=1;strokeColor=none;fillColor=none;align=center;verticalAlign=middle;whiteSpace=wrap;rounded=0;" parent="K1xtMbe7Ad5UqCrFpwCg-90" vertex="1">
          <mxGeometry x="60" y="10" width="76.96" height="20" as="geometry" />
        </mxCell>
        <mxCell id="K1xtMbe7Ad5UqCrFpwCg-91" value="" style="group" parent="K1xtMbe7Ad5UqCrFpwCg-1" vertex="1" connectable="0">
          <mxGeometry x="1120" y="540" width="200" height="260" as="geometry" />
        </mxCell>
        <mxCell id="K1xtMbe7Ad5UqCrFpwCg-81" value="" style="rounded=0;whiteSpace=wrap;html=1;gradientColor=#ffffff;" parent="K1xtMbe7Ad5UqCrFpwCg-91" vertex="1">
          <mxGeometry width="200" height="260" as="geometry" />
        </mxCell>
        <mxCell id="K1xtMbe7Ad5UqCrFpwCg-82" value="&lt;font style=&quot;font-size: 18px&quot;&gt;&lt;b&gt;清结算中心&lt;/b&gt;&lt;/font&gt;" style="text;html=1;strokeColor=none;fillColor=none;align=center;verticalAlign=middle;whiteSpace=wrap;rounded=0;" parent="K1xtMbe7Ad5UqCrFpwCg-91" vertex="1">
          <mxGeometry x="50" y="10" width="95.65" height="20" as="geometry" />
        </mxCell>
        <mxCell id="K1xtMbe7Ad5UqCrFpwCg-93" value="" style="group" parent="K1xtMbe7Ad5UqCrFpwCg-1" vertex="1" connectable="0">
          <mxGeometry x="1340" y="540" width="200" height="260" as="geometry" />
        </mxCell>
        <mxCell id="K1xtMbe7Ad5UqCrFpwCg-85" value="" style="rounded=0;whiteSpace=wrap;html=1;gradientColor=#ffffff;" parent="K1xtMbe7Ad5UqCrFpwCg-93" vertex="1">
          <mxGeometry width="200" height="260" as="geometry" />
        </mxCell>
        <mxCell id="K1xtMbe7Ad5UqCrFpwCg-86" value="&lt;span style=&quot;font-size: 18px&quot;&gt;&lt;b&gt;通用中心&lt;/b&gt;&lt;/span&gt;" style="text;html=1;strokeColor=none;fillColor=none;align=center;verticalAlign=middle;whiteSpace=wrap;rounded=0;" parent="K1xtMbe7Ad5UqCrFpwCg-93" vertex="1">
          <mxGeometry x="60" y="10" width="84.78260869565217" height="20" as="geometry" />
        </mxCell>
        <mxCell id="K1xtMbe7Ad5UqCrFpwCg-94" value="" style="rounded=0;whiteSpace=wrap;html=1;gradientColor=#ffffff;" parent="K1xtMbe7Ad5UqCrFpwCg-1" vertex="1">
          <mxGeometry x="248" y="140" width="1302" height="60" as="geometry" />
        </mxCell>
        <mxCell id="K1xtMbe7Ad5UqCrFpwCg-95" value="&lt;b&gt;&lt;font style=&quot;font-size: 18px&quot;&gt;IOS&lt;/font&gt;&lt;/b&gt;" style="rounded=1;whiteSpace=wrap;html=1;gradientColor=#ffffff;" parent="K1xtMbe7Ad5UqCrFpwCg-1" vertex="1">
          <mxGeometry x="250" y="69" width="120" height="60" as="geometry" />
        </mxCell>
        <mxCell id="K1xtMbe7Ad5UqCrFpwCg-96" value="&lt;font style=&quot;font-size: 18px&quot;&gt;&lt;b&gt;Android&lt;/b&gt;&lt;/font&gt;" style="rounded=1;whiteSpace=wrap;html=1;gradientColor=#ffffff;" parent="K1xtMbe7Ad5UqCrFpwCg-1" vertex="1">
          <mxGeometry x="440" y="69" width="120" height="60" as="geometry" />
        </mxCell>
        <mxCell id="K1xtMbe7Ad5UqCrFpwCg-97" value="&lt;font style=&quot;font-size: 18px&quot;&gt;&lt;b&gt;H5&lt;/b&gt;&lt;/font&gt;" style="rounded=1;whiteSpace=wrap;html=1;gradientColor=#ffffff;" parent="K1xtMbe7Ad5UqCrFpwCg-1" vertex="1">
          <mxGeometry x="630" y="69" width="120" height="60" as="geometry" />
        </mxCell>
        <mxCell id="K1xtMbe7Ad5UqCrFpwCg-98" value="&lt;font style=&quot;font-size: 18px&quot;&gt;&lt;b&gt;公众号&lt;/b&gt;&lt;/font&gt;" style="rounded=1;whiteSpace=wrap;html=1;gradientColor=#ffffff;" parent="K1xtMbe7Ad5UqCrFpwCg-1" vertex="1">
          <mxGeometry x="1011" y="69" width="120" height="60" as="geometry" />
        </mxCell>
        <mxCell id="K1xtMbe7Ad5UqCrFpwCg-99" value="&lt;b&gt;&lt;font style=&quot;font-size: 18px&quot;&gt;PC&lt;/font&gt;&lt;/b&gt;" style="rounded=1;whiteSpace=wrap;html=1;gradientColor=#ffffff;" parent="K1xtMbe7Ad5UqCrFpwCg-1" vertex="1">
          <mxGeometry x="1201" y="69" width="120" height="60" as="geometry" />
        </mxCell>
        <mxCell id="K1xtMbe7Ad5UqCrFpwCg-100" value="&lt;span style=&quot;font-size: 18px&quot;&gt;......&lt;/span&gt;" style="rounded=1;whiteSpace=wrap;html=1;gradientColor=#ffffff;" parent="K1xtMbe7Ad5UqCrFpwCg-1" vertex="1">
          <mxGeometry x="1391" y="69" width="120" height="60" as="geometry" />
        </mxCell>
        <mxCell id="K1xtMbe7Ad5UqCrFpwCg-101" value="&lt;font style=&quot;font-size: 18px&quot;&gt;&lt;b&gt;小程序&lt;/b&gt;&lt;/font&gt;" style="rounded=1;whiteSpace=wrap;html=1;gradientColor=#ffffff;" parent="K1xtMbe7Ad5UqCrFpwCg-1" vertex="1">
          <mxGeometry x="820" y="69" width="120" height="60" as="geometry" />
        </mxCell>
        <mxCell id="K1xtMbe7Ad5UqCrFpwCg-104" value="" style="rounded=0;whiteSpace=wrap;html=1;gradientColor=#ffffff;" parent="K1xtMbe7Ad5UqCrFpwCg-1" vertex="1">
          <mxGeometry x="214" y="540" width="200" height="260" as="geometry" />
        </mxCell>
        <mxCell id="K1xtMbe7Ad5UqCrFpwCg-105" value="&lt;font style=&quot;font-size: 18px&quot;&gt;&lt;b&gt;用户中心&lt;/b&gt;&lt;/font&gt;" style="text;html=1;strokeColor=none;fillColor=none;align=center;verticalAlign=middle;whiteSpace=wrap;rounded=0;" parent="K1xtMbe7Ad5UqCrFpwCg-1" vertex="1">
          <mxGeometry x="270" y="550" width="76.96" height="20" as="geometry" />
        </mxCell>
      </root>
    </mxGraphModel>
  </diagram>
</mxfile>
